<?xml version="1.0" encoding="utf-8"?>
<!-- Generator: Adobe Illustrator 21.0.0, SVG Export Plug-In . SVG Version: 6.00 Build 0)  -->
<svg version="1.1" id="Layer_1" xmlns="http://www.w3.org/2000/svg" xmlns:xlink="http://www.w3.org/1999/xlink" x="0px" y="0px"
	 viewBox="0 0 1920 3000" style="enable-background:new 0 0 1920 3000;" xml:space="preserve">
<rect x="-0.5" y="0" style="fill:#F6F5DF;" width="1920" height="2997.9"/>
<path style="fill:#B4E55C;" d="M-25.9,1302.3c0,0,591.4-890.3,1302.4-877.8c0,0,696.5,21.4,755.6,438.9v294.4l-1072.6,55.6
	L-25.9,1302.3z"/>
<path style="fill:#49C0DC;" d="M-195.7,813.4c0,0,377.8-672.2,1522.4,381l-594.6,19l-888.9,88.9L-195.7,813.4z"/>
<path style="fill:#F8878F;" d="M1513,2571c387-387,802,293.4,802,293.4l46.5-1141.4c-460-1153.8-919.5-893.3-1032-641.6
	c-82.4,184.4-272,66.7-272,66.7c-326.4-261.5-412-71.4-516-18.5c-104,52.8-292-52.8-292-52.8c-416-214.1-688,170.5-688,170.5
	l281.2,1347.2l0,0c0,0,94.4,291.7,644.8,27c0,0,274-135.6,498.3,22C1075,2706,1326.7,2745,1513,2571L1513,2571z"/>
<path style="fill:#CC48ED;stroke:#000000;stroke-miterlimit:10;" d="M3344.5,1109"/>
<g>
</g>
<g>
</g>
<g>
</g>
<g>
</g>
<g>
</g>
</svg>
