<svg xmlns="http://www.w3.org/2000/svg" viewBox="0 0 500 1000"><defs><style>.cls-1{fill:#f6f5df;}.cls-2{fill:#b4e55c;}.cls-3{fill:#49c0dc;}.cls-4{fill:#f8878f;}</style></defs><title>phonebeta</title><g id="Layer_1" data-name="Layer 1"><rect class="cls-1" x="-0.17" width="499.31" height="1000"/></g><g id="Layer_2" data-name="Layer 2"><path class="cls-2" d="M-6.79,484.06S147,252.53,331.92,255.79c0,0,181.13,5.58,196.49,114.14V446.5L249.48,460.95Z"/></g><g id="Layer_3" data-name="Layer 3"><path class="cls-3" d="M-49.59,344.8S50.75,166.25,354.76,446L196.83,451l-236.1,23.61Z"/></g><g id="Layer_4" data-name="Layer 4"><path class="cls-4" d="M393.42,802C494.06,701.35,602,878.28,602,878.28l12.1-296.83C494.45,281.4,375,349.14,345.7,414.58,324.27,462.52,275,431.94,275,431.94c-84.88-68-107.14-18.56-134.19-4.82s-75.94-13.74-75.94-13.74c-108.18-55.68-178.92,44.34-178.92,44.34l73.13,350.34h0s24.56,75.86,167.68,7c0,0,71.27-35.26,129.59,5.72,23.2,16.3,88.64,26.44,137.1-18.81Z"/></g></svg>