<svg xmlns="http://www.w3.org/2000/svg" viewBox="0 0 500 1500"><defs><style>.cls-1{fill:#fbf8ef;}.cls-2{fill:#b4e55c;}.cls-3{fill:#49c0dc;}.cls-4{fill:#f8878f;}</style></defs><title>phonebeta</title><g id="Layer_2" data-name="Layer 2"><rect class="cls-1" x="2.15" width="499.31" height="1500"/></g><g id="Layer_3" data-name="Layer 3"><path class="cls-2" d="M-4,837.06s153.8-231.54,338.71-228.27c0,0,181.13,5.58,196.49,114.14V799.5L252.31,813.95Z"/></g><g id="Layer_4" data-name="Layer 4"><path class="cls-3" d="M-46.77,697.8S53.57,519.25,357.59,799L199.66,804l-236.1,23.61Z"/></g><g id="Layer_5" data-name="Layer 5"><path class="cls-4" d="M396.25,1155c100.64-100.64,208.55,76.29,208.55,76.29l12.1-296.83c-119.63-300-239.12-232.3-268.38-166.86-21.43,47.94-70.74,17.36-70.74,17.36-84.88-68-107.14-18.56-134.19-4.82s-75.94-13.74-75.94-13.74c-108.18-55.68-178.92,44.34-178.92,44.34l73.13,350.34h0s24.56,75.86,167.68,7c0,0,71.27-35.26,129.59,5.72,23.2,16.3,88.64,26.44,137.1-18.81Z"/></g></svg>